<svg width="23" height="37" viewBox="0 0 23 37" fill="none" xmlns="http://www.w3.org/2000/svg">
<path d="M21.5451 35.6215C21.842 35.3166 22.0759 34.956 22.2333 34.5606C22.3907 34.1651 22.4686 33.7425 22.4625 33.3169C22.4564 32.8912 22.3664 32.471 22.1977 32.0802C22.0289 31.6895 21.7848 31.3358 21.4792 31.0395L8.68932 18.612L21.1168 5.8221C21.7157 5.20575 22.0452 4.37675 22.0328 3.51745C22.0205 2.65816 21.6673 1.83895 21.0509 1.24007C20.4346 0.64119 19.6056 0.311685 18.7463 0.324035C17.887 0.336385 17.0678 0.689578 16.4689 1.30593L1.76734 16.4363C1.4704 16.7412 1.23653 17.1018 1.07911 17.4972C0.921687 17.8927 0.843807 18.3153 0.849924 18.7409C0.856041 19.1665 0.946034 19.5868 1.11476 19.9775C1.28348 20.3683 1.52762 20.722 1.83319 21.0183L16.9635 35.7199C18.2162 36.937 20.2959 36.9071 21.5451 35.6215Z" fill="black"/>
</svg>
